<?xml version="1.0" encoding="UTF-8"?>
<svg width="600px" height="99px" viewBox="0 0 600 99" version="1.1" xmlns="http://www.w3.org/2000/svg" xmlns:xlink="http://www.w3.org/1999/xlink">
    <!-- Generator: Sketch 52.3 (67297) - http://www.bohemiancoding.com/sketch -->
    <title>logo</title>
    <desc>Created with Sketch.</desc>
    <g id="Page-1" stroke="none" stroke-width="1" fill="none" fill-rule="evenodd">
        <g id="logo" fill="#000000">
            <g id="Group">
                <path d="M49.452439,98.9085366 C22.1414634,98.9085366 0,76.7670732 0,49.452439 C0,22.1414634 22.1414634,0 49.452439,0 C76.7670732,0 98.9085366,22.1414634 98.9085366,49.452439 C98.9085366,76.7670732 76.7670732,98.9085366 49.452439,98.9085366 Z M49.452439,95.0487805 C74.6341463,95.0487805 95.0487805,74.6341463 95.0487805,49.452439 C95.0487805,24.2743902 74.6341463,3.8597561 49.452439,3.8597561 C24.2743902,3.8597561 3.8597561,24.2743902 3.8597561,49.452439 C3.8597561,74.6341463 24.2743902,95.0487805 49.452439,95.0487805 Z" id="Shape" fill-rule="nonzero"></path>
                <ellipse id="Oval" cx="49.547561" cy="49.547561" rx="4.25121951" ry="4.24756098"></ellipse>
            </g>
            <path d="M165.190244,68.8609756 C161.72561,68.8609756 158.597561,68.0670732 155.813415,66.4829268 C153.065236,64.9333695 150.798857,62.6543293 149.264634,59.897561 C147.680488,57.0914634 146.886585,53.945122 146.886585,50.4695122 C146.886585,46.9902439 147.680488,43.847561 149.264634,41.0378049 C150.803673,38.2759895 153.07978,35.9960829 155.839024,34.452439 C158.641463,32.8682927 161.773171,32.0743902 165.241463,32.0743902 C167.839024,32.0743902 170.242683,32.5243902 172.441463,33.4170732 C174.58777,34.2751334 176.505285,35.6202749 178.042683,37.3463415 L175.693902,39.7719512 C172.960976,36.9146341 169.510976,35.4841463 165.340244,35.4841463 C162.57439,35.4841463 160.057317,36.1426829 157.789024,37.4487805 C155.558583,38.7224004 153.718057,40.5806354 152.465854,42.8231707 C151.181707,45.0914634 150.537805,47.645122 150.537805,50.4695122 C150.537805,53.2939024 151.181707,55.8402439 152.465854,58.1158537 C153.746341,60.3878049 155.52439,62.1768293 157.789024,63.4865854 C160.057317,64.7963415 162.57439,65.4512195 165.340244,65.4512195 C169.543902,65.4512195 172.993902,64.0060976 175.693902,61.1121951 L178.042683,63.5378049 C176.509756,65.2609756 174.632927,66.5780488 172.415854,67.4890244 C170.12115,68.4176569 167.665622,68.8838965 165.190244,68.8609756 Z M200.842683,32.3853659 L204.541463,32.3853659 L204.541463,68.55 L200.842683,68.55 L200.842683,32.3853659 Z M260.096341,32.3853659 L260.096341,68.55 L257.045122,68.55 L234.541463,39.204878 L234.541463,68.55 L230.839024,68.55 L230.839024,32.3853659 L233.890244,32.3853659 L256.445122,61.7304878 L256.445122,32.3853659 L260.096341,32.3853659 Z M286.393902,32.3853659 L300.643902,32.3853659 C304.346341,32.3853659 307.613415,33.1536585 310.44878,34.6829268 C313.212586,36.1480691 315.501899,38.370124 317.04878,41.0890244 C318.614634,43.8292683 319.397561,46.9536585 319.397561,50.4695122 C319.397561,53.9817073 318.614634,57.1060976 317.04878,59.8463415 C315.50135,62.5638912 313.212089,64.7846272 310.44878,66.2487805 C307.613415,67.7853659 304.346341,68.5536585 300.643902,68.5536585 L286.393902,68.5536585 L286.393902,32.3817073 L286.393902,32.3853659 Z M300.442683,65.2426829 C303.515854,65.2426829 306.197561,64.6170732 308.49878,63.3585366 C310.738572,62.1594718 312.593038,60.3506702 313.847561,58.1414634 C315.113415,55.9170732 315.75,53.3597561 315.75,50.4695122 C315.75,47.5756098 315.113415,45.0182927 313.847561,42.7939024 C312.593038,40.5846956 310.738572,38.775894 308.49878,37.5768293 C306.193902,36.3219512 303.512195,35.6926829 300.446341,35.6926829 L290.092683,35.6926829 L290.092683,65.2426829 L300.446341,65.2426829 L300.442683,65.2426829 Z M342.596341,32.3853659 L346.29878,32.3853659 L346.29878,68.55 L342.596341,68.55 L342.596341,32.3853659 Z M387.797561,68.8609756 C384.329268,68.8609756 381.204878,68.0670732 378.420732,66.4829268 C375.672553,64.9333695 373.406174,62.6543293 371.871951,59.897561 C370.287805,57.0914634 369.493902,53.945122 369.493902,50.4695122 C369.493902,46.9902439 370.287805,43.847561 371.871951,41.0378049 C373.41099,38.2759895 375.687097,35.9960829 378.446341,34.452439 C381.245122,32.8682927 384.380488,32.0743902 387.84878,32.0743902 C390.446341,32.0743902 392.85,32.5243902 395.04878,33.4170732 C397.195087,34.2751334 399.112602,35.6202749 400.65,37.3463415 L398.30122,39.7719512 C395.564634,36.9146341 392.118293,35.4841463 387.947561,35.4841463 C385.181707,35.4841463 382.664634,36.1426829 380.396341,37.4487805 C378.164553,38.7218725 376.322716,40.5801547 375.069512,42.8231707 C373.789024,45.0914634 373.145122,47.645122 373.145122,50.4695122 C373.145122,53.2939024 373.789024,55.8402439 375.069512,58.1158537 C376.353659,60.3878049 378.128049,62.1768293 380.396341,63.4865854 C382.664634,64.7963415 385.181707,65.4512195 387.947561,65.4512195 C392.147561,65.4512195 395.597561,64.0060976 398.30122,61.1121951 L400.65,63.5378049 C399.113415,65.2609756 397.240244,66.5780488 395.023171,67.4890244 C392.728467,68.4176569 390.272939,68.8838965 387.797561,68.8609756 Z M444.504878,58.8878049 L424.997561,58.8878049 L420.797561,68.55 L416.945122,68.55 L432.95122,32.3853659 L436.59878,32.3853659 L452.60122,68.55 L448.70122,68.55 L444.50122,58.8914634 L444.504878,58.8878049 Z M443.15122,55.7890244 L434.75122,36.3621951 L426.347561,55.7890244 L443.15122,55.7890244 Z M478.35,35.6926829 L466.05,35.6926829 L466.05,32.3853659 L494.352439,32.3853659 L494.352439,35.6926829 L482.052439,35.6926829 L482.052439,68.55 L478.35,68.55 L478.35,35.6926829 Z M529.953659,68.8609756 C526.485366,68.8609756 523.342683,68.0597561 520.52561,66.4573171 C517.762848,64.9096185 515.479437,62.631271 513.92561,59.8719512 C512.341463,57.0804878 511.547561,53.945122 511.547561,50.4695122 C511.547561,46.9902439 512.341463,43.854878 513.92561,41.0670732 C515.478903,38.3064066 517.762362,36.0267453 520.52561,34.4780488 C523.342683,32.8756098 526.489024,32.0743902 529.953659,32.0743902 C533.421951,32.0743902 536.546341,32.8682927 539.330488,34.452439 C542.082451,36.0056791 544.356231,38.2832548 545.904878,41.0378049 C547.507317,43.847561 548.304878,46.9902439 548.304878,50.4695122 C548.304878,53.945122 547.507317,57.0914634 545.904878,59.897561 C544.356231,62.6521111 542.082451,64.9296868 539.330488,66.4829268 C536.546341,68.0670732 533.421951,68.8609756 529.953659,68.8609756 Z M529.953659,65.4512195 C532.719512,65.4512195 535.221951,64.8036585 537.453659,63.5121951 C539.66788,62.2422796 541.486502,60.3831306 542.707317,58.1414634 C543.973171,55.8512195 544.606098,53.2939024 544.606098,50.4695122 C544.606098,47.645122 543.973171,45.0878049 542.703659,42.7939024 C541.48384,40.552721 539.666532,38.6936207 537.453659,37.4231707 C535.171789,36.1183827 532.581995,35.448826 529.953659,35.4841463 C527.187805,35.4841463 524.678049,36.1317073 522.428049,37.4231707 C520.198953,38.6907884 518.363192,40.5493378 517.123171,42.7939024 C515.826268,45.1418476 515.164231,47.7874711 515.202439,50.4695122 C515.202439,53.2939024 515.842683,55.847561 517.126829,58.1414634 C518.407317,60.4317073 520.178049,62.2207317 522.428049,63.5121951 C524.678049,64.8036585 527.184146,65.4512195 529.953659,65.4512195 Z M595.408537,68.55 L587.407317,56.9268293 C586.476865,57.0314428 585.54119,57.0827461 584.604878,57.0804878 L575.202439,57.0804878 L575.202439,68.55 L571.507317,68.55 L571.507317,32.3853659 L584.604878,32.3853659 C589.07561,32.3853659 592.573171,33.4865854 595.108537,35.6926829 C597.643902,37.895122 598.909756,40.9243902 598.909756,44.7841463 C598.909756,47.6085366 598.214634,49.9939024 596.835366,51.9402439 C595.44878,53.8865854 593.473171,55.2914634 590.908537,56.1512195 L599.458537,68.5536585 L595.408537,68.5536585 L595.408537,68.55 Z M584.506098,53.8280488 C587.97439,53.8280488 590.623171,53.0341463 592.459756,51.45 C594.289024,49.8658537 595.207317,47.645122 595.207317,44.7841463 C595.207317,41.8573171 594.292683,39.6109756 592.459756,38.0414634 C590.623171,36.4756098 587.97439,35.6926829 584.506098,35.6926829 L575.206098,35.6926829 L575.206098,53.8280488 L584.506098,53.8280488 Z" id="Shape" fill-rule="nonzero"></path>
        </g>
    </g>
</svg>