<?xml version="1.0" encoding="utf-8"?>
<!-- Generator: Adobe Illustrator 23.0.2, SVG Export Plug-In . SVG Version: 6.00 Build 0)  -->
<svg version="1.1" id="Слой_1" xmlns="http://www.w3.org/2000/svg" xmlns:xlink="http://www.w3.org/1999/xlink" x="0px" y="0px"
	 viewBox="0 0 638.6 164.2" style="enable-background:new 0 0 638.6 164.2;" xml:space="preserve">
<style type="text/css">
	.st0{fill:#FFFFFF;}
</style>
<title>cryptovalley</title>
<path class="st0" d="M24.9,87.2c0-5.9,1.1-11.8,3.1-17.3l-10.9-6.3c-6.8,16.5-6.2,35,1.7,51l10.8-6.2
	C26.5,101.7,24.9,94.5,24.9,87.2z"/>
<path class="st0" d="M161.3,58.9c0-18.7,8.7-28,26.2-28c3.7,0,7.5,0.5,11,1.6c3.6,1,5.3,2.4,5.3,3.9c-0.2,1.7-0.8,3.2-1.8,4.6
	c-1.2,1.9-2.3,2.9-3.2,2.9c-0.6-0.1-1.1-0.4-1.6-0.6c-3.1-1.3-6.5-2-9.9-1.9c-9.1,0-13.6,5.9-13.6,17.8s4.5,17.8,13.4,17.7
	c3.7,0,7.4-0.8,10.9-2.4c0.6-0.3,1.3-0.6,2-0.8c1.1,0,2.1,0.9,3.1,2.7c0.8,1.2,1.3,2.7,1.5,4.1c0,2.1-1.9,3.7-5.8,4.9
	c-3.8,1.1-7.7,1.7-11.7,1.7c-8.8,0-15.3-2.3-19.5-6.9C163.3,75.7,161.2,68.6,161.3,58.9z"/>
<path class="st0" d="M211.2,84.2V59.3c0.1-2.8-0.1-5.5-0.5-8.2c-0.2-0.9-0.4-1.9-0.5-2.8c0-0.8,1.1-1.5,3.2-1.9
	c1.6-0.3,3.2-0.6,4.8-0.6c0.7-0.1,1.4,0,2.1,0.3c0.4,0.2,0.7,0.6,0.9,1c0.2,0.4,0.4,0.8,0.5,1.1c0.1,0.5,0.3,1,0.4,1.5
	c0.1,0.4,0.2,0.8,0.3,1.3c2.2-4,5.1-6,8.6-6c1.7,0,2.9,0.4,3.5,1.3c0.7,0.9,1,1.9,1,3c0,1.4-0.3,2.8-0.7,4.1c-0.5,1.7-1,2.5-1.7,2.5
	c-0.6,0-1.1-0.2-1.6-0.3c-0.6-0.2-1.3-0.3-2-0.3c-2.6,0-4.7,1.3-6.3,3.9v25.2c0,1.7-1.6,2.5-4.7,2.5h-2.2
	C212.9,86.8,211.2,85.9,211.2,84.2z"/>
<path class="st0" d="M235.9,47.1c0-1.2,1.6-1.7,4.8-1.7h2.5c2.6,0,4,0.6,4.4,1.7l4.6,14.5c0.5,1.5,1.2,4.6,2.2,9.5h0.3
	c1-5,1.8-8.2,2.2-9.5l4.6-14.5c0.4-1.1,1.8-1.7,4.4-1.7h1.9c3.1,0,4.7,0.6,4.7,1.7c0,0.5-0.1,1-0.2,1.4l-18,52.7
	c-0.4,1.1-1.9,1.6-4.4,1.6h-1.3c-3.1,0-4.7-0.6-4.7-1.6c0-0.5,0.1-1,0.3-1.4l5-13.2l-12.9-38.1C236.1,48,236,47.6,235.9,47.1z"/>
<path class="st0" d="M278.4,100.3v-41c0.1-2.8-0.1-5.5-0.5-8.2c-0.2-0.9-0.4-1.9-0.5-2.8c0-0.8,1.1-1.5,3.2-1.9
	c1.6-0.3,3.2-0.6,4.8-0.6c0.7-0.1,1.4,0,2.1,0.3c0.4,0.2,0.7,0.6,0.9,1c0.2,0.4,0.3,0.8,0.5,1.1c0.1,0.5,0.3,0.9,0.4,1.4
	c0.1,0.6,0.2,1,0.3,1.2c1-1.8,2.4-3.2,4.2-4.2c1.9-1.1,4.1-1.7,6.3-1.6c4.2,0,8.2,2.1,10.6,5.6c2.7,3.7,4.1,8.9,4.1,15.5
	s-1.5,11.8-4.4,15.6c-2.9,3.8-7,5.7-12.2,5.7c-2.9,0.1-5.7-0.8-8-2.4v15.5c0,1.7-1.6,2.5-4.7,2.5h-2.2
	C280,102.8,278.4,101.9,278.4,100.3z M295.6,78.1c4.9,0,7.3-3.9,7.3-11.8s-2.1-11.8-6.4-11.9c-2.5,0-4.7,1.5-6.4,4.6v17.5
	C291.7,77.5,293.6,78,295.6,78.1L295.6,78.1z"/>
<path class="st0" d="M338.5,78l2.1-0.3c0.7,0,1.2,0.8,1.7,2.3c0.4,1.1,0.6,2.2,0.7,3.3c0,2.6-2.5,3.8-7.5,3.8
	c-7.6,0-11.5-4.2-11.5-12.7V54.7h-1.3c-1.6,0-2.4-1.3-2.4-3.9v-1.3c0-2.6,0.8-3.9,2.4-3.9h1.3l1-7.5c0.3-1.7,1.7-2.5,4.2-2.5h2.4
	c2.6,0,3.9,0.8,3.9,2.5v7.5h3.9c1.6,0,2.4,1.3,2.4,3.9v1.3c0,2.6-0.8,3.9-2.4,3.9h-3.9v20C335.6,76.9,336.6,78,338.5,78z"/>
<path class="st0" d="M353,81.8c-3.2-3.6-4.9-8.9-4.9-15.8c0-6.9,1.6-12.1,4.9-15.7c3.3-3.6,8-5.4,14.2-5.4s11,1.8,14.2,5.4
	c3.2,3.6,4.8,8.8,4.8,15.7s-1.6,12.1-4.8,15.8c-3.2,3.6-7.9,5.5-14.2,5.5S356.2,85.4,353,81.8z M359.9,66c0,8,2.4,12,7.3,12
	s7.3-4,7.3-12s-2.4-12-7.3-12S359.9,58,359.9,66L359.9,66z"/>
<path class="st0" d="M408.8,33.2c0-1.2,1.6-1.7,4.8-1.7h2.6c2.6,0,4.2,0.8,4.6,2.3l11.5,36.8h0.3l11.8-36.8c0.5-1.5,2.1-2.3,4.6-2.3
	h2.4c3.1,0,4.7,0.6,4.7,1.7c0,0.5-0.1,1-0.2,1.4l-17,50.5c-0.4,1.1-1.8,1.7-4.4,1.7h-4.1c-2.6,0-4-0.6-4.4-1.7l-17-50.5
	C408.9,34.1,408.8,33.6,408.8,33.2z"/>
<path class="st0" d="M460.1,75.7c0-1.3,0.1-2.7,0.4-4c0.4-1.4,1-2.7,1.8-3.8c1-1.4,2.3-2.6,3.8-3.4c3.7-2.2,9.2-3.3,16.6-3.3v-2.6
	c0-3-2-4.5-6.1-4.5c-2.9,0-5.8,0.6-8.4,1.9c-0.5,0.3-1.1,0.5-1.6,0.6c-0.8,0-1.7-0.8-2.6-2.4c-0.8-1.1-1.3-2.4-1.5-3.8
	c0-1.4,1.4-2.7,4.4-3.8c3.4-1.2,7-1.7,10.6-1.6c11.3,0,16.9,4.4,16.9,13.1v14.7c0,2.7,0.1,5.5,0.5,8.2l0.5,3.2c0,0.8-1,1.5-3.2,1.9
	c-1.6,0.3-3.2,0.6-4.8,0.6c-0.7,0.1-1.4,0-2.1-0.3c-0.4-0.3-0.7-0.6-0.9-1.1c-0.2-0.5-0.4-0.9-0.5-1.2c-0.2-0.5-0.3-1-0.4-1.5
	c-0.1-0.4-0.2-0.9-0.3-1.3c-1.2,1.9-2.9,3.3-4.9,4.2c-2.1,1.1-4.3,1.7-6.7,1.7c-4,0-6.9-1-8.8-3.2C461,81.7,460,78.8,460.1,75.7z
	 M471.7,74.6c-0.1,0.9,0.3,1.9,1,2.5c0.9,0.7,2,1,3.1,0.9c1.4,0,2.9-0.5,4-1.4c1.3-0.9,2.3-2.1,2.9-3.5v-4.3
	C475.4,68.8,471.7,70.7,471.7,74.6L471.7,74.6z"/>
<path class="st0" d="M519.1,78l2.1-0.3c0.7,0,1.2,0.8,1.7,2.3c0.4,1.1,0.6,2.2,0.7,3.3c0,2.6-2.5,3.9-7.5,3.8
	c-7.7,0-11.5-4.2-11.5-12.7V29.9c0-1.7,1.6-2.5,4.7-2.5h2.3c3.1,0,4.7,0.8,4.7,2.5v44.8C516.3,76.9,517.2,78,519.1,78z"/>
<path class="st0" d="M542.4,78l2.1-0.3c0.7,0,1.2,0.8,1.7,2.3c0.4,1.1,0.6,2.2,0.7,3.3c0,2.6-2.5,3.9-7.5,3.8
	c-7.7,0-11.5-4.2-11.5-12.7V29.9c0-1.7,1.6-2.5,4.7-2.5h2.2c3.1,0,4.7,0.8,4.7,2.5v44.8C539.6,76.9,540.6,78,542.4,78z"/>
<path class="st0" d="M554.7,81.7c-3.4-3.7-5.1-9-5.1-16c0-7,1.7-12.2,5.1-15.6c3.4-3.4,8-5.2,13.9-5.2s10.2,1.9,13,5.7
	c2.8,3.8,4.1,8.7,4.1,14.6c0,0.6-0.5,1.6-1.6,2.8s-1.9,1.8-2.4,1.8h-20c0.3,3,1.2,5.1,2.7,6.4c1.7,1.3,3.7,2,5.8,1.9
	c2.3,0,4.6-0.4,6.8-1.2c2.2-0.8,3.2-1.2,3.3-1.2c0.8,0,1.7,0.8,2.6,2.3c0.8,1.1,1.3,2.3,1.5,3.7c0,1.7-1.6,3.1-4.9,4.1
	c-3,1-6.1,1.5-9.2,1.5C563.2,87.2,558.1,85.4,554.7,81.7z M574.4,62c0.1-2-0.4-4-1.4-5.8c-0.9-1.4-2.5-2.3-4.2-2.2
	c-3.9,0-6.2,2.6-7.1,7.9H574.4z"/>
<path class="st0" d="M589.5,47.1c0-1.2,1.6-1.7,4.8-1.7h2.5c2.6,0,4,0.6,4.4,1.7l4.6,14.5c0.5,1.5,1.2,4.6,2.2,9.5h0.3
	c1-5,1.8-8.2,2.2-9.5l4.6-14.5c0.4-1.1,1.8-1.7,4.4-1.7h1.9c3.1,0,4.7,0.6,4.7,1.7c0,0.5-0.1,1-0.2,1.4l-18,52.7
	c-0.4,1.1-1.9,1.6-4.4,1.6h-1.3c-3.2,0-4.7-0.6-4.7-1.6c0-0.5,0.1-1,0.3-1.4l5-13.1l-12.9-38.1C589.7,48,589.6,47.6,589.5,47.1z"/>
<path class="st0" d="M68,38.1V25.6c-18.6,1.9-35.2,12.1-45.4,27.7l10.7,6.2C41.3,47.8,53.9,40,68,38.1z"/>
<path class="st0" d="M79.6,136.3v12.4c17.3-1.5,33.2-10.1,43.8-23.9l-10.8-6.3C104.3,128.6,92.5,135,79.6,136.3z"/>
<path class="st0" d="M123.4,86.3c0,7.5-1.7,15-5,21.7l10.8,6.2c8.3-16.2,8.9-35.3,1.8-52.1l-10.9,6.3
	C122.3,74.1,123.4,80.2,123.4,86.3z"/>
<path class="st0" d="M115.1,59.1l10.8-6.2c-10.5-15.7-27.5-25.8-46.3-27.4V38C93.9,39.5,106.9,47.2,115.1,59.1z"/>
<path class="st0" d="M35.9,118.2l-10.8,6.2c10.3,13.7,25.9,22.5,43,24.3v-12.5C55.4,134.6,43.9,128.1,35.9,118.2z"/>
<path class="st0" d="M75.9,107.5c-11.2,0-20.4-9.1-20.4-20.3c0-11.2,9.1-20.4,20.3-20.4c5.4,0,10.6,2.1,14.4,6l7.5-7.5
	c-12.1-12.1-31.7-12.1-43.8,0S41.9,96.9,54,109c11.8,11.8,30.9,12.1,43.1,0.7l-7.5-7.5C85.8,105.6,80.9,107.5,75.9,107.5z"/>
<g>
	<path class="st0" d="M162,116.1h4.2l8.4,19l8.2-19h4.2v29.1h-4.4v-18.2h-0.1l-6.1,14h-3.7l-6.1-14h-0.1v18.2H162V116.1z"/>
	<path class="st0" d="M195.8,136.5c0,1.7,0.5,2.9,1.4,3.8c0.9,0.9,2.1,1.3,3.5,1.3c1.7,0,3.2-0.7,4.5-2l3,2.6
		c-2.1,2.3-4.6,3.4-7.5,3.4c-1.1,0-2.2-0.2-3.2-0.5c-0.5-0.2-1-0.4-1.5-0.7c-0.5-0.3-1-0.6-1.5-0.9c-0.9-0.8-1.6-1.9-2.1-3.2
		c-0.6-1.3-0.9-3.1-0.9-5.2c0-2.1,0.3-3.8,0.8-5.1c0.5-1.4,1.2-2.5,2-3.3c0.8-0.8,1.8-1.4,2.8-1.8c1-0.4,2-0.5,3-0.5
		c2.4,0,4.4,0.8,6,2.3c1.7,1.6,2.5,3.7,2.5,6.4v3.4H195.8z M204.6,133.1c-0.1-1.6-0.5-2.8-1.3-3.7c-0.8-0.8-1.8-1.2-3.1-1.2
		s-2.3,0.4-3.1,1.2c-0.8,0.8-1.2,2-1.3,3.7H204.6z"/>
	<path class="st0" d="M213.4,124.5h4.2v2.2h0.1c1.4-1.6,3.2-2.5,5.4-2.5c1.4,0,2.6,0.3,3.5,0.7c0.9,0.5,1.7,1.2,2.4,2
		c1.6-1.8,3.8-2.7,6.5-2.7c1.7,0,3.3,0.6,4.7,1.8c1.4,1.2,2.1,3,2.2,5.4v13.8h-4.2v-12.4c0-1.5-0.4-2.6-1.1-3.3
		c-0.8-0.8-1.7-1.2-2.9-1.2c-1.2,0-2.2,0.4-3,1.2c-0.8,0.8-1.2,1.9-1.2,3.3v12.4h-4.2v-12.4c0-1.5-0.4-2.6-1.1-3.3
		c-0.8-0.8-1.8-1.2-3-1.2s-2.2,0.4-2.9,1.2c-0.8,0.8-1.2,1.9-1.2,3.3v12.4h-4.2V124.5z"/>
	<path class="st0" d="M248,116.1h4.2v10.6c0.8-0.7,1.6-1.3,2.5-1.8c0.8-0.4,1.8-0.7,2.9-0.7c2.5,0.1,4.4,1,5.6,2.7
		c0.6,0.7,1,1.5,1.2,2.6c0.2,1.1,0.3,2.8,0.3,5.3c0,2.5-0.1,4.2-0.3,5.3c-0.2,1.1-0.6,2-1.2,2.7c-0.6,0.8-1.3,1.4-2.3,1.9
		c-0.9,0.5-2,0.8-3.3,0.8c-2.2-0.1-4-0.9-5.4-2.4v2.2H248V116.1z M256.3,128.5c-0.9,0-1.7,0.2-2.2,0.6c-0.6,0.4-1,0.9-1.3,1.5
		c-0.3,0.6-0.4,1.3-0.5,2c-0.1,0.7-0.1,1.5-0.1,2.3c0,0.7,0,1.5,0.1,2.2c0.1,0.8,0.2,1.5,0.5,2.1c0.3,0.6,0.7,1.1,1.3,1.5
		c0.5,0.4,1.3,0.6,2.2,0.6c1,0,1.8-0.2,2.3-0.6c0.6-0.4,1-0.9,1.2-1.5c0.3-0.6,0.4-1.3,0.5-2.1c0-0.7,0-1.5,0-2.3c0-0.8,0-1.6,0-2.4
		c-0.1-0.7-0.3-1.4-0.5-2c-0.2-0.6-0.6-1.1-1.2-1.5C258.1,128.6,257.3,128.5,256.3,128.5z"/>
	<path class="st0" d="M272.4,136.5c0,1.7,0.5,2.9,1.4,3.8c0.9,0.9,2.1,1.3,3.5,1.3c1.7,0,3.2-0.7,4.5-2l3,2.6
		c-2.1,2.3-4.6,3.4-7.5,3.4c-1.1,0-2.2-0.2-3.2-0.5c-0.5-0.2-1-0.4-1.5-0.7c-0.5-0.3-1-0.6-1.5-0.9c-0.9-0.8-1.6-1.9-2.1-3.2
		c-0.6-1.3-0.9-3.1-0.9-5.2c0-2.1,0.3-3.8,0.8-5.1c0.5-1.4,1.2-2.5,2-3.3c0.8-0.8,1.8-1.4,2.8-1.8c1-0.4,2-0.5,3-0.5
		c2.4,0,4.4,0.8,6,2.3c1.7,1.6,2.5,3.7,2.5,6.4v3.4H272.4z M281.2,133.1c-0.1-1.6-0.5-2.8-1.3-3.7c-0.8-0.8-1.8-1.2-3.1-1.2
		s-2.3,0.4-3.1,1.2c-0.8,0.8-1.2,2-1.3,3.7H281.2z"/>
	<path class="st0" d="M289.7,124.5h4.2v2.2h0.1c1.4-1.6,3.2-2.5,5.4-2.5c1.7,0,3.1,0.6,4.4,1.6l-3,3.6c-0.9-0.7-1.8-1-2.7-1
		c-1.1,0-2,0.3-2.7,1c-0.9,0.7-1.3,1.8-1.3,3.3v12.5h-4.2V124.5z"/>
</g>
</svg>
