<svg fill="none" height="13" viewBox="0 0 1976 235" width="103" xmlns="http://www.w3.org/2000/svg"><g fill="#fff"><path d="m1971 0h-163a5 5 0 0 0 -5 5v6a5 5 0 0 0 5 5h73v214c0 2.761 2.24 5 5 5h7c2.76 0 5-2.239 5-5v-214h73a5 5 0 0 0 5-5v-6a5 5 0 0 0 -5-5zm-602.89 0c9.38 0 18.22 4.386 23.89 11.856l169.9 223.707h-5.02c-9.37 0-18.21-4.384-23.88-11.85l-170-223.713z"/><path d="m1558.3.098a29.994 29.994 0 0 0 -24.04 11.545l-172.78 221.489 5.02.065a30.016 30.016 0 0 0 24.04-11.539l172.87-221.494zm48.7 4.902a5 5 0 0 1 5-5h12v235h-12c-2.76 0-5-2.239-5-5zm17 121v-17h100c2.76 0 5 2.239 5 5v7c0 2.761-2.24 5-5 5zm0-109v-17h72v17zm0 218v-17h76c2.76 0 5 2.239 5 5v7c0 2.761-2.24 5-5 5z"/><path d="m1696 0c16.71 0 32.73 6.637 44.55 18.452a63.018 63.018 0 0 1 18.45 44.548 63.02 63.02 0 0 1 -18.45 44.548 63.01 63.01 0 0 1 -44.55 18.452v-16.947c12.21 0 23.93-4.852 32.56-13.489a46.04 46.04 0 0 0 13.49-32.564 46.04 46.04 0 0 0 -13.49-32.564 46.039 46.039 0 0 0 -32.56-13.489z"/><path d="m1696 109a63.01 63.01 0 0 1 44.55 18.452 63.018 63.018 0 0 1 18.45 44.548 63.018 63.018 0 0 1 -18.45 44.548 63.01 63.01 0 0 1 -44.55 18.452v-16.947c12.21 0 23.93-4.852 32.56-13.489a46.038 46.038 0 0 0 13.49-32.564 46.038 46.038 0 0 0 -13.49-32.564 46.037 46.037 0 0 0 -32.56-13.489zm-624-21a5 5 0 0 1 -5 5h-45a5 5 0 0 1 -5-5v-83a5 5 0 0 1 5-5h45a5 5 0 0 1 5 5zm0 142c0 2.761-2.24 5-5 5h-45c-2.76 0-5-2.239-5-5v-83c0-2.761 2.24-5 5-5h45c2.76 0 5 2.239 5 5z"/><path d="m1043 46a5 5 0 0 1 -5-5v-36a5 5 0 0 1 5-5h140a5 5 0 0 1 5 5v36a5 5 0 0 1 -5 5zm0 189c-2.76 0-5-2.239-5-5v-36c0-2.761 2.24-5 5-5h140c2.76 0 5 2.239 5 5v36c0 2.761-2.24 5-5 5zm29-137a5 5 0 0 1 5-5h39a5 5 0 0 1 5 5v39c0 2.761-2.24 5-5 5h-39c-2.76 0-5-2.239-5-5zm-312 131a5 5 0 0 1 -5 5h-45a5 5 0 0 1 -5-5v-224a5 5 0 0 1 5-5h45a5 5 0 0 1 5 5zm184 0a5 5 0 0 1 -5 5h-45a5 5 0 0 1 -5-5v-224a5 5 0 0 1 5-5h45a5 5 0 0 1 5 5z"/><path d="m828.102 219.247c-1.955 3.507-7.037 3.395-8.836-.195l-24.155-48.192a4.998 4.998 0 0 1 .098-4.668l90.862-163.62a5 5 0 0 1 4.371-2.572h17.037c1.296 0 2.542.504 3.474 1.405l22.341 21.593a4.999 4.999 0 0 1 .892 6.03z"/><path d="m819.33 218.718c1.977 3.507 7.078 3.358 8.847-.259l23.284-47.615a5.002 5.002 0 0 0 -.12-4.624l-90.878-163.647a4.999 4.999 0 0 0 -4.371-2.572h-17.036a5.003 5.003 0 0 0 -3.475 1.404l-22.327 21.58a4.999 4.999 0 0 0 -.881 6.051z"/><rect height="93" rx="5" transform="matrix(-1 0 0 -1 1264 186)" width="55" x="632" y="93"/><rect height="92" rx="5" transform="matrix(-1 0 0 -1 1264 468)" width="55" x="632" y="234"/><path d="m366 230a5 5 0 0 1 -5 5h-45a5 5 0 0 1 -5-5v-225a5 5 0 0 1 5-5h45a5 5 0 0 1 5 5z"/><path d="m353 46v-46h55v46zm0 147v-46h55v46z"/><path d="m407.5 193a96.502 96.502 0 0 0 68.236-164.736 96.501 96.501 0 0 0 -68.236-28.264v45.942a50.559 50.559 0 0 1 0 101.116z"/><path d="m374 147h29l18.527 7 72.37 72.37c3.15 3.15.919 8.536-3.535 8.536h-40.048a30.002 30.002 0 0 1 -21.077-8.652l-24.918-24.602a29.996 29.996 0 0 0 -21.077-8.652h-9.242z"/><rect height="49" rx="5" width="49" y="93"/><path d="m104 142h-50a5 5 0 0 0 -5 5v83a5 5 0 0 0 5 5h45a5 5 0 0 0 5-5v-36.5a5 5 0 0 1 5-5h34.5c40.715 0 65.512-26.435 75.249-39.442 2.289-3.056.045-7.058-3.773-7.058zm-55-137a5 5 0 0 1 5-5h107.5c43.995 0 72.44 48.48 76.148 86.826.273 2.823-2.007 5.174-4.844 5.174h-44.964c-2.698 0-4.935-2.122-5.27-4.8-1.476-11.785-7.882-41.2-35.07-41.2h-38.5a5 5 0 0 0 -5 5v37a5 5 0 0 1 -5 5h-45a5 5 0 0 1 -5-5z"/></g></svg>