<svg width="118" height="33" viewBox="0 0 118 33" fill="#000000" xmlns="http://www.w3.org/2000/svg">
<path d="M51.4952 9.81763H47.9316V27.6356H57.4778V24.9098H51.4952V9.81763Z"/>
<path d="M75.225 20.2724C75.3187 21.3912 75.0043 22.5061 74.34 23.4112C73.6211 24.0823 72.6744 24.4555 71.6909 24.4555C70.7075 24.4555 69.7607 24.0823 69.0418 23.4112C68.364 22.5115 68.0368 21.3958 68.1214 20.2724V9.81763H64.5814V20.2724C64.5091 21.2916 64.642 22.3149 64.9724 23.2817C65.3028 24.2486 65.8239 25.1393 66.5048 25.901C67.1831 26.5525 67.987 27.059 68.8675 27.3897C69.748 27.7204 70.6865 27.8683 71.626 27.8244C72.9064 27.8443 74.1729 27.557 75.3194 26.9866C76.4167 26.4288 77.312 25.5417 77.88 24.4496C78.5298 23.1556 78.8462 21.7197 78.8004 20.2724V9.81763H75.2604L75.225 20.2724Z"/>
<path d="M96.6184 23.2695L91.2612 10.0181H86.9424V27.6355H90.506V15.3989L95.0254 27.6355H98.1052L102.625 15.3399V27.6355H106.165V10.0181H101.869L96.6184 23.2695Z"/>
<path d="M118 9.81763H114.437V27.6474H118V9.81763Z"/>
<path d="M17.0037 8.6965C16.1458 8.69417 15.3079 8.43781 14.5956 7.95976C13.8833 7.48172 13.3286 6.80341 13.0014 6.01043C12.6742 5.21744 12.5892 4.34531 12.7571 3.50406C12.925 2.66282 13.3384 1.89016 13.945 1.28358C14.5515 0.676996 15.3242 0.263664 16.1654 0.0957359C17.0067 -0.0721925 17.8788 0.0128067 18.6718 0.340009C19.4648 0.667211 20.1431 1.22196 20.6211 1.93425C21.0992 2.64654 21.3555 3.48447 21.3579 4.3423C21.3579 4.91411 21.2453 5.48031 21.0264 6.00858C20.8076 6.53686 20.4869 7.01686 20.0826 7.42119C19.266 8.23776 18.1585 8.6965 17.0037 8.6965ZM17.0037 2.1357C16.5649 2.1357 16.136 2.26581 15.7712 2.50957C15.4064 2.75333 15.1221 3.0998 14.9541 3.50516C14.7862 3.91052 14.7423 4.35656 14.8279 4.78689C14.9135 5.21722 15.1248 5.6125 15.435 5.92275C15.7453 6.233 16.1406 6.44428 16.5709 6.52988C17.0012 6.61548 17.4473 6.57154 17.8526 6.40364C18.258 6.23573 18.6045 5.9514 18.8482 5.58658C19.092 5.22177 19.2221 4.79286 19.2221 4.3541C19.2236 4.06179 19.1674 3.77205 19.0566 3.50154C18.9458 3.23102 18.7827 2.98507 18.5765 2.77783C18.3704 2.57058 18.1253 2.40611 17.8554 2.29389C17.5854 2.18167 17.296 2.1239 17.0037 2.1239V2.1357Z" />
<path d="M10.4193 20.2842C9.56046 20.2842 8.7209 20.0295 8.0068 19.5523C7.29269 19.0752 6.73612 18.397 6.40745 17.6035C6.07879 16.8101 5.99279 15.937 6.16034 15.0946C6.3279 14.2523 6.74147 13.4785 7.34877 12.8712C7.95606 12.2639 8.7298 11.8504 9.57215 11.6828C10.4145 11.5153 11.2876 11.6012 12.0811 11.9299C12.8745 12.2586 13.5527 12.8152 14.0299 13.5293C14.507 14.2434 14.7617 15.0829 14.7617 15.9418C14.7586 17.0925 14.3001 18.1952 13.4864 19.0089C12.6727 19.8226 11.57 20.2811 10.4193 20.2842ZM10.4193 13.7234C9.98055 13.7234 9.55164 13.8535 9.18683 14.0972C8.82202 14.341 8.53768 14.6875 8.36977 15.0928C8.20187 15.4982 8.15793 15.9442 8.24353 16.3746C8.32913 16.8049 8.54041 17.2002 8.85066 17.5104C9.16091 17.8207 9.55619 18.0319 9.98652 18.1175C10.4168 18.2031 10.8629 18.1592 11.2683 17.9913C11.6736 17.8234 12.0201 17.5391 12.2638 17.1742C12.5076 16.8094 12.6377 16.3805 12.6377 15.9418C12.6377 15.6504 12.5803 15.362 12.4688 15.0928C12.3574 14.8237 12.194 14.5791 11.988 14.3731C11.782 14.1671 11.5374 14.0037 11.2683 13.8922C10.9991 13.7807 10.7106 13.7234 10.4193 13.7234Z" />
<path d="M24.2372 20.2842C23.3783 20.2842 22.5388 20.0295 21.8247 19.5523C21.1106 19.0752 20.554 18.397 20.2253 17.6035C19.8967 16.8101 19.8107 15.937 19.9782 15.0946C20.1458 14.2523 20.5593 13.4785 21.1666 12.8712C21.7739 12.2639 22.5477 11.8504 23.39 11.6828C24.2324 11.5153 25.1055 11.6012 25.8989 11.9299C26.6924 12.2586 27.3706 12.8152 27.8478 13.5293C28.3249 14.2434 28.5796 15.0829 28.5796 15.9418C28.5765 17.0925 28.118 18.1952 27.3043 19.0089C26.4906 19.8226 25.3879 20.2811 24.2372 20.2842ZM24.2372 13.7234C23.7984 13.7234 23.3695 13.8535 23.0047 14.0972C22.6399 14.341 22.3555 14.6875 22.1876 15.0928C22.0197 15.4982 21.9758 15.9442 22.0614 16.3746C22.147 16.8049 22.3583 17.2002 22.6685 17.5104C22.9788 17.8207 23.3741 18.0319 23.8044 18.1175C24.2347 18.2031 24.6808 18.1592 25.0861 17.9913C25.4915 17.8234 25.8379 17.5391 26.0817 17.1742C26.3255 16.8094 26.4556 16.3805 26.4556 15.9418C26.4556 15.3534 26.2219 14.7892 25.8058 14.3731C25.3898 13.9571 24.8255 13.7234 24.2372 13.7234Z" />
<path d="M17.7001 32.3791C16.8412 32.3791 16.0017 32.1245 15.2876 31.6473C14.5735 31.1702 14.0169 30.492 13.6882 29.6985C13.3595 28.905 13.2736 28.0319 13.4411 27.1896C13.6087 26.3472 14.0222 25.5735 14.6295 24.9662C15.2368 24.3589 16.0106 23.9453 16.8529 23.7778C17.6953 23.6102 18.5684 23.6962 19.3618 24.0249C20.1553 24.3535 20.8335 24.9101 21.3106 25.6242C21.7878 26.3383 22.0425 27.1779 22.0425 28.0367C22.0394 29.1875 21.5809 30.2902 20.7672 31.1038C19.9535 31.9175 18.8508 32.376 17.7001 32.3791ZM17.7001 25.8183C17.2613 25.8183 16.8324 25.9484 16.4676 26.1922C16.1028 26.436 15.8184 26.7824 15.6505 27.1878C15.4826 27.5932 15.4387 28.0392 15.5243 28.4695C15.6099 28.8999 15.8212 29.2951 16.1314 29.6054C16.4417 29.9156 16.837 30.1269 17.2673 30.2125C17.6976 30.2981 18.1437 30.2542 18.549 30.0863C18.9544 29.9184 19.3008 29.634 19.5446 29.2692C19.7884 28.9044 19.9185 28.4755 19.9185 28.0367C19.9185 27.4484 19.6847 26.8841 19.2687 26.4681C18.8527 26.0521 18.2884 25.8183 17.7001 25.8183Z" />
<path d="M4.3424 32.3791C3.48356 32.3791 2.644 32.1245 1.92989 31.6473C1.21579 31.1702 0.659213 30.492 0.330547 29.6985C0.00188149 28.905 -0.0841125 28.0319 0.08344 27.1896C0.250992 26.3472 0.664566 25.5735 1.27186 24.9662C1.87916 24.3589 2.6529 23.9453 3.49524 23.7778C4.33758 23.6102 5.2107 23.6962 6.00417 24.0249C6.79764 24.3535 7.47583 24.9101 7.95298 25.6242C8.43012 26.3383 8.6848 27.1779 8.6848 28.0367C8.68169 29.1875 8.22319 30.2902 7.4095 31.1038C6.59582 31.9175 5.49312 32.376 4.3424 32.3791ZM4.3424 25.8183C3.90364 25.8183 3.47474 25.9484 3.10993 26.1922C2.74511 26.436 2.46077 26.7824 2.29287 27.1878C2.12496 27.5932 2.08103 28.0392 2.16663 28.4695C2.25223 28.8999 2.46351 29.2951 2.77376 29.6054C3.08401 29.9156 3.47929 30.1269 3.90961 30.2125C4.33994 30.2981 4.78599 30.2542 5.19135 30.0863C5.59671 29.9184 5.94317 29.634 6.18693 29.2692C6.4307 28.9044 6.5608 28.4755 6.5608 28.0367C6.5608 27.4484 6.32708 26.8841 5.91105 26.4681C5.49502 26.0521 4.93076 25.8183 4.3424 25.8183Z" />
<path d="M31.0811 32.3791C30.2213 32.3837 29.3794 32.133 28.6622 31.6587C27.945 31.1844 27.3847 30.5079 27.0524 29.7149C26.7202 28.9218 26.6308 28.048 26.7957 27.2041C26.9605 26.3602 27.3722 25.5842 27.9786 24.9746C28.5849 24.3649 29.3586 23.949 30.2016 23.7795C31.0446 23.61 31.9189 23.6946 32.7138 24.0226C33.5086 24.3506 34.1882 24.9071 34.6664 25.6217C35.1446 26.3363 35.3999 27.1768 35.3999 28.0367C35.3968 29.1833 34.9416 30.2825 34.133 31.0955C33.3244 31.9085 32.2277 32.3698 31.0811 32.3791ZM31.0811 25.8183C30.6423 25.8183 30.2134 25.9484 29.8486 26.1921C29.4838 26.4359 29.1995 26.7824 29.0316 27.1877C28.8636 27.5931 28.8197 28.0391 28.9053 28.4695C28.9909 28.8998 29.2022 29.2951 29.5124 29.6053C29.8227 29.9156 30.218 30.1269 30.6483 30.2124C31.0786 30.298 31.5247 30.2541 31.93 30.0862C32.3354 29.9183 32.6819 29.634 32.9256 29.2692C33.1694 28.9043 33.2995 28.4754 33.2995 28.0367C33.2995 27.4483 33.0658 26.8841 32.6497 26.468C32.2337 26.052 31.6694 25.8183 31.0811 25.8183Z" />
<defs>
<clipPath id="clip0">
<rect width="118" height="32.3792"/>
</clipPath>
</defs>
</svg>
